<svg xmlns="http://www.w3.org/2000/svg" viewBox="0 0 195.45 61.97"><defs><style>.cls-1{fill:#bb9b6a;}.cls-2{fill:#aeaeae;}</style></defs><title>Logo</title><g id="Layer_2" data-name="Layer 2"><g id="Layer_1-2" data-name="Layer 1"><path class="cls-1" d="M10.75,38.21C7.81,23,16.51,8.5,30.19,5.85c11.77-2.28,23.4,5,28.28,16.74C54.13,7.32,39.24-2.43,24,.53,7.81,3.65-2.66,19.82.59,36.64s19,27.92,35.15,24.8l.23,0C24.11,61.12,13.35,51.62,10.75,38.21Z"/><path class="cls-2" d="M37.36,51.28c-10.83,0-19.72-9-20.57-20.41,0,.65,0,1.31-.06,2C16.21,49.66,26,57.75,37.36,57.74S58,46.56,57.95,32.8q0-1-.07-2C57.06,42.26,48.19,51.27,37.36,51.28Z"/><path class="cls-1" d="M38.32,15.17A17.86,17.86,0,0,0,36,15c7.13,2.67,11.56,9.46,10.22,16.4C45,38,38.92,42.66,31.78,43.16c.78.22,1.61.28,2.43.5,8.45,2.29,17.46-2.16,18.84-10C54.64,24.66,47.08,16.34,38.32,15.17Z"/><path class="cls-2" d="M27.67,30a9.68,9.68,0,0,1,9.9-9.44,10.22,10.22,0,0,1,5.09,1.34,9.81,9.81,0,0,0-7.32-3.29,10.09,10.09,0,0,0-1.95,20A9.43,9.43,0,0,1,27.67,30Z"/><path class="cls-2" d="M90.77,17.37a3.8,3.8,0,0,1-2,3.31A9.78,9.78,0,0,1,83.37,22a10,10,0,0,1-5.44-1.32,3.83,3.83,0,0,1-2-3.31V8.51h2.17v8.34a2.59,2.59,0,0,0,1.35,2.35,7.65,7.65,0,0,0,3.91.81,7.55,7.55,0,0,0,3.9-.81,2.6,2.6,0,0,0,1.33-2.35V8.51h2.17Z"/><path class="cls-2" d="M107.73,21.6h-3.24l-7.56-9.28V21.6H94.76V10.48H98l7.56,9.28V10.48h2.17Z"/><path class="cls-2" d="M113.69,21.6h-2.17V10.48h2.17Z"/><path class="cls-2" d="M130.48,10.48,124.33,21.6h-2.5l-6.15-11.12h2.4l5,9.23,5-9.23Z"/><path class="cls-2" d="M144.44,21.6h-12V10.48H144v2h-9.38v2.41h6.53v2h-6.53v2.86h9.8Z"/><path class="cls-2" d="M157.31,13.23a10,10,0,0,0-4.72-1.14q-3.71,0-3.71,1.32c0,.52.46.86,1.39,1l3.8.34a9.76,9.76,0,0,1,3.89,1,2.58,2.58,0,0,1,1.28,2.37,3.08,3.08,0,0,1-1.6,2.77,9,9,0,0,1-4.64,1,11,11,0,0,1-6.85-2l1.18-1.54A9.59,9.59,0,0,0,153,20a7.11,7.11,0,0,0,2.91-.48c.68-.32,1-.74,1-1.27s-.42-1-1.27-1.25a10.65,10.65,0,0,0-2.19-.27q-2.32-.11-2.84-.16a6.45,6.45,0,0,1-3-.89,2.3,2.3,0,0,1-1-2,2.83,2.83,0,0,1,1.56-2.52,8.62,8.62,0,0,1,4.39-.93,10.45,10.45,0,0,1,6.1,1.63Z"/><path class="cls-2" d="M173.31,12.43H168V21.6h-2.17V12.43h-5.32v-2h12.8Z"/><path class="cls-2" d="M89.17,32.45a3.15,3.15,0,0,1,2.24,3.31q0,3.44-5,3.44H76V26.1H86.61a4.65,4.65,0,0,1,3.13,1,3.26,3.26,0,0,1,1.14,2.6A3,3,0,0,1,89.17,32.45Zm-2.53-.87a2.24,2.24,0,0,0,1.51-.52,1.69,1.69,0,0,0,.06-2.54,2.17,2.17,0,0,0-1.48-.47H78.2v3.53Zm-.16,5.66q2.71,0,2.71-1.79t-2.37-1.92H78.2v3.71Z"/><path class="cls-2" d="M107.65,35.54a3.3,3.3,0,0,1-1.75,2.87,10.54,10.54,0,0,1-9.42,0,3.3,3.3,0,0,1-1.75-2.87V28.07H96.9v7q0,2.46,4.31,2.46t4.28-2.46v-7h2.17Z"/><path class="cls-2" d="M121.4,30.82a10,10,0,0,0-4.72-1.14Q113,29.68,113,31q0,.78,1.39,1l3.8.35a9.77,9.77,0,0,1,3.89,1,2.58,2.58,0,0,1,1.28,2.37,3.07,3.07,0,0,1-1.6,2.77,9,9,0,0,1-4.64,1,11,11,0,0,1-6.85-2L111.42,36a9.59,9.59,0,0,0,5.64,1.61,7.1,7.1,0,0,0,2.91-.48c.69-.32,1-.74,1-1.28s-.42-1-1.27-1.25a10.78,10.78,0,0,0-2.19-.27q-2.32-.11-2.84-.16a6.45,6.45,0,0,1-3-.88,2.3,2.3,0,0,1-1-2,2.83,2.83,0,0,1,1.56-2.52,8.62,8.62,0,0,1,4.39-.93,10.44,10.44,0,0,1,6.09,1.63Z"/><path class="cls-2" d="M128.22,39.19H126V28.07h2.17Z"/><path class="cls-2" d="M145,39.19h-3.24l-7.56-9.28v9.28H132V28.07h3.24l7.56,9.28V28.07H145Z"/><path class="cls-2" d="M160.75,39.19h-12V28.07h11.56v2h-9.38v2.4h6.53v2h-6.53v2.86h9.8Z"/><path class="cls-2" d="M173.62,30.82a10,10,0,0,0-4.72-1.14q-3.71,0-3.71,1.32,0,.78,1.39,1l3.8.35a9.77,9.77,0,0,1,3.89,1,2.58,2.58,0,0,1,1.29,2.37,3.08,3.08,0,0,1-1.6,2.77,9,9,0,0,1-4.64,1,11,11,0,0,1-6.85-2L163.64,36a9.59,9.59,0,0,0,5.64,1.61,7.11,7.11,0,0,0,2.91-.48c.69-.32,1-.74,1-1.28s-.42-1-1.27-1.25a10.76,10.76,0,0,0-2.19-.27q-2.31-.11-2.84-.16a6.46,6.46,0,0,1-3-.88,2.3,2.3,0,0,1-1-2,2.83,2.83,0,0,1,1.56-2.52,8.61,8.61,0,0,1,4.39-.93A10.45,10.45,0,0,1,175,29.41Z"/><path class="cls-2" d="M188.34,30.82a10,10,0,0,0-4.72-1.14q-3.71,0-3.71,1.32,0,.78,1.39,1l3.8.35a9.78,9.78,0,0,1,3.89,1,2.58,2.58,0,0,1,1.28,2.37,3.08,3.08,0,0,1-1.6,2.77,9,9,0,0,1-4.64,1,11,11,0,0,1-6.85-2L178.36,36A9.58,9.58,0,0,0,184,37.56a7.1,7.1,0,0,0,2.91-.48c.69-.32,1-.74,1-1.28s-.42-1-1.27-1.25a10.78,10.78,0,0,0-2.19-.27q-2.31-.11-2.84-.16a6.46,6.46,0,0,1-3-.88,2.3,2.3,0,0,1-1-2,2.84,2.84,0,0,1,1.56-2.52,8.63,8.63,0,0,1,4.39-.93,10.44,10.44,0,0,1,6.09,1.63Z"/><path class="cls-2" d="M193.52,48.39a10,10,0,0,0-4.72-1.14q-3.71,0-3.71,1.32,0,.78,1.39,1l3.8.34a9.8,9.8,0,0,1,3.89,1,2.59,2.59,0,0,1,1.29,2.37,3.08,3.08,0,0,1-1.6,2.77,9,9,0,0,1-4.64,1,11,11,0,0,1-6.85-2l1.18-1.54a9.58,9.58,0,0,0,5.64,1.61,7.09,7.09,0,0,0,2.91-.48c.68-.32,1-.74,1-1.27s-.42-1-1.27-1.25a10.82,10.82,0,0,0-2.19-.27c-1.54-.07-2.49-.13-2.84-.16a6.46,6.46,0,0,1-3-.89,2.3,2.3,0,0,1-1-2,2.83,2.83,0,0,1,1.56-2.52,8.6,8.6,0,0,1,4.39-.93A10.44,10.44,0,0,1,194.86,47Z"/><path class="cls-2" d="M94,56.78H91.85V46.08H91.8L85,54.61l-6.75-8.54H78.2V56.78H76V43.69h2.71L85,51.6l6.3-7.91H94Z"/><path class="cls-2" d="M111.25,56.78h-2.39l-1.28-2.39h-7.47l-1.28,2.39H96.44l6.06-11.12h2.69Zm-4.75-4.34-2.64-4.93-2.66,4.93Z"/><path class="cls-2" d="M126.7,48.34l-2,.69a6.17,6.17,0,0,0-4.54-1.77,6,6,0,0,0-3.78,1.09,3.58,3.58,0,0,0,0,5.69,6.12,6.12,0,0,0,3.81,1.08,6,6,0,0,0,4.54-1.81l1.86,1a8.22,8.22,0,0,1-6.46,2.77,8.31,8.31,0,0,1-5.38-1.65,5.35,5.35,0,0,1,.28-8.64,8.94,8.94,0,0,1,11.65,1.55Z"/><path class="cls-2" d="M142.67,56.78H140.5V52h-8.59v4.81h-2.17V45.66h2.17V50h8.59V45.66h2.17Z"/><path class="cls-2" d="M148.63,56.78h-2.17V45.66h2.17Z"/><path class="cls-2" d="M165.39,56.78h-3.24L154.6,47.5v9.28h-2.17V45.66h3.23l7.56,9.28V45.66h2.17Z"/><path class="cls-2" d="M181.16,56.78h-12V45.66h11.55v2h-9.38V50h6.53v2h-6.53v2.86h9.8Z"/></g></g></svg>